<svg width="98" height="29" viewBox="0 0 98 29" fill="none" xmlns="http://www.w3.org/2000/svg">
<path d="M12.6387 28.7493C11.4551 28.7493 10.4472 28.5129 9.61522 28.0401C8.7832 27.5552 8.08594 26.8581 7.52344 25.9489L7.1543 28.3675H2.72461V3.74596L0 3.20044V0H7.83984V10.7833C8.39063 9.99525 9.06445 9.38915 9.86132 8.96484C10.6699 8.54054 11.6074 8.3284 12.6738 8.3284C14.209 8.3284 15.5097 8.75875 16.5762 9.61947C17.6543 10.4681 18.4746 11.6682 19.0371 13.2199C19.5996 14.7717 19.8808 16.5962 19.8808 18.6934V19.0753C19.8808 21.0271 19.5996 22.7304 19.0371 24.185C18.4746 25.6277 17.6543 26.749 16.5762 27.5492C15.498 28.3492 14.1855 28.7493 12.6387 28.7493ZM11.0742 24.6215C12.3867 24.6215 13.3301 24.1426 13.9043 23.1849C14.4785 22.2151 14.7656 20.8452 14.7656 19.0753V18.6934C14.7656 17.4084 14.6367 16.3052 14.3789 15.3839C14.1328 14.4505 13.7402 13.7291 13.2012 13.2199C12.6738 12.7108 11.9824 12.4562 11.1269 12.4562C10.3535 12.4562 9.69142 12.6441 9.14063 13.02C8.58984 13.3957 8.15625 13.9049 7.83984 14.5474V22.7667C8.19141 23.3729 8.63672 23.8335 9.17578 24.1487C9.72652 24.4639 10.3594 24.6215 11.0742 24.6215ZM19.7617 28.3675V25.1852L22.2402 24.6397V12.4381L19.498 11.8925V8.69208H27.373V24.6397L29.834 25.1852V28.3675H19.7617ZM22.0644 4.52788V0H27.373V4.52788H22.0644ZM30.2754 28.3675V25.1852L32.7539 24.6397V3.74596L30.0117 3.20044V0H37.8691V24.6397L40.084 25.1852V28.3675H30.2754ZM42.3867 28.3675V25.3488L43.8281 25.0033L43.7929 24.9306L40.0312 19.639L43.3008 16.1658L49.541 24.6215L49.8965 25.1852V28.3675H42.3867ZM37.3242 22.9849L34.8633 20.0208L43.125 12.2016L43.1601 12.1471L41.209 11.8562V8.69208H51.1055V11.8925L48.6445 12.529L37.3242 22.9849ZM49.4082 28.3675V25.1852L51.8867 24.6397V3.74596L49.1445 3.20044V0H57.0019V24.6397L59.2168 25.1852V28.3675H49.4082ZM61.5195 28.3675V25.3488L62.9609 25.0033L62.9258 24.9306L59.164 19.639L62.4336 16.1658L68.6738 24.6215L71.0293 25.1852V28.3675H61.5195ZM56.457 22.9849L53.9961 20.0208L62.2578 12.2016L62.2929 12.1471L60.3418 11.8562V8.69208H70.2383V11.8925L67.7773 12.529L56.457 22.9849ZM71.541 28.3675V25.1852L74.0195 24.6397V3.74596L71.2773 3.20044V0H79.1523V24.6397L81.6308 25.1852V28.3675H71.541ZM90.0727 28.7493C88.2558 28.7493 86.6679 28.3371 85.3086 27.5128C83.9492 26.6763 82.8945 25.5307 82.1445 24.076C81.4062 22.6212 81.0371 20.9604 81.0371 19.0935V18.3661C81.0371 16.4143 81.3887 14.6868 82.0918 13.1836C82.7949 11.6682 83.7851 10.4802 85.0625 9.61947C86.3515 8.74663 87.8691 8.31627 89.6157 8.3284C91.3377 8.3284 92.7847 8.67996 93.9567 9.38308C95.1287 10.0862 96.0197 11.0984 96.6287 12.4199C97.2387 13.7412 97.5427 15.3415 97.5427 17.2205V20.1118H86.3633L86.3281 20.2209C86.3984 21.0816 86.6035 21.8515 86.9433 22.5303C87.2949 23.1971 87.7871 23.7244 88.4199 24.1123C89.0527 24.4881 89.8207 24.676 90.7227 24.676C91.6597 24.676 92.5327 24.5549 93.3417 24.3124C94.1617 24.0578 94.9587 23.6881 95.7327 23.2031L97.1207 26.4763C96.3357 27.1309 95.3457 27.6764 94.1507 28.1129C92.9667 28.5372 91.6077 28.7493 90.0727 28.7493ZM86.3984 16.6023H92.7437V16.1294C92.7437 15.3294 92.6387 14.6444 92.4277 14.0746C92.2287 13.4927 91.9007 13.0442 91.4437 12.729C90.9977 12.4138 90.4177 12.2562 89.7027 12.2562C89.0234 12.2562 88.4492 12.4441 87.9805 12.8199C87.5117 13.1836 87.1426 13.6867 86.873 14.3292C86.6152 14.9717 86.4394 15.6991 86.3457 16.5114L86.3984 16.6023Z" fill="white"/>
</svg>
